<svg width="256" height="256" viewBox="0 0 256 256" fill="none" xmlns="http://www.w3.org/2000/svg">
<rect x="24" y="28" width="29" height="210" fill="#FFB70B"/>
<path d="M136.456 125.058H182.335V185.017C176.271 187.021 169.969 188.629 163.43 189.842C156.891 191.002 149.481 191.582 141.202 191.582C129.706 191.582 119.95 189.314 111.935 184.779C103.919 180.244 97.8281 173.547 93.6621 164.688C89.4961 155.828 87.4131 144.938 87.4131 132.019C87.4131 119.89 89.7334 109.396 94.374 100.536C99.0674 91.6768 105.896 84.8213 114.861 79.9697C123.879 75.1182 134.874 72.6924 147.847 72.6924C153.964 72.6924 160.002 73.3516 165.961 74.6699C171.92 75.9883 177.325 77.7021 182.177 79.8115L174.029 99.4287C170.496 97.6357 166.462 96.1328 161.927 94.9199C157.392 93.707 152.646 93.1006 147.688 93.1006C140.569 93.1006 134.373 94.7354 129.1 98.0049C123.879 101.274 119.818 105.862 116.918 111.769C114.07 117.622 112.646 124.53 112.646 132.493C112.646 140.034 113.675 146.731 115.731 152.585C117.788 158.386 121.031 162.947 125.461 166.27C129.891 169.539 135.665 171.174 142.784 171.174C146.265 171.174 149.191 171.016 151.564 170.699C153.99 170.33 156.258 169.961 158.367 169.592V145.466H136.456V125.058Z" fill="#CC0000"/>
</svg>
